<svg width="142" height="142" viewBox="0 0 142 142" fill="none" xmlns="http://www.w3.org/2000/svg">
<rect width="142" height="142" rx="1" fill="url(#paint0_linear_42_539)"/>
<path fill-rule="evenodd" clip-rule="evenodd" d="M115.522 42.0986C108.064 38.0366 100.6 36 93.1416 36C85.6835 36 78.2197 38.0366 70.7615 42.0986V97.5453C78.2197 93.8134 85.6835 91.9502 93.1416 91.9502C100.6 91.9502 108.064 93.8134 115.522 97.5453V42.0986Z" fill="url(#paint1_linear_42_539)" stroke="white" stroke-width="5" stroke-linecap="round" stroke-linejoin="round"/>
<path fill-rule="evenodd" clip-rule="evenodd" d="M104.642 48.8011C100.81 47.7268 96.9772 47.1897 93.139 47.1897C89.3008 47.1897 85.4738 47.7268 81.6357 48.8011M104.642 59.9911C100.81 58.9169 96.9772 58.3797 93.139 58.3797C89.3008 58.3797 85.4738 58.9169 81.6357 59.9911M104.642 71.1812C100.81 70.1069 96.9772 69.5698 93.139 69.5698C89.3008 69.5698 85.4738 70.1069 81.6357 71.1812M104.642 82.3712C100.81 81.297 96.9772 80.7598 93.139 80.7598C89.3008 80.7598 85.4738 81.297 81.6357 82.3712M59.8822 48.8011C56.044 47.7268 52.217 47.1897 48.3788 47.1897C44.5406 47.1897 40.7136 47.7268 36.8755 48.8011M59.8822 59.9911C56.044 58.9169 52.217 58.3797 48.3788 58.3797C44.5406 58.3797 40.7136 58.9169 36.8755 59.9911M59.8822 71.1812C56.0496 70.1069 52.217 69.5698 48.3788 69.5698C44.5406 69.5698 40.7136 70.1069 36.8755 71.1812M59.8822 82.3712C56.0496 81.297 52.217 80.7598 48.3788 80.7598C44.5406 80.7598 40.7136 81.297 36.8755 82.3712" fill="url(#paint2_linear_42_539)"/>
<path d="M104.642 48.8011C100.81 47.7268 96.9772 47.1897 93.139 47.1897C89.3008 47.1897 85.4738 47.7268 81.6357 48.8011M104.642 59.9911C100.81 58.9169 96.9772 58.3797 93.139 58.3797C89.3008 58.3797 85.4738 58.9169 81.6357 59.9911M104.642 71.1812C100.81 70.1069 96.9772 69.5698 93.139 69.5698C89.3008 69.5698 85.4738 70.1069 81.6357 71.1812M104.642 82.3712C100.81 81.297 96.9772 80.7598 93.139 80.7598C89.3008 80.7598 85.4738 81.297 81.6357 82.3712M59.8822 48.8011C56.044 47.7268 52.217 47.1897 48.3788 47.1897C44.5406 47.1897 40.7136 47.7268 36.8755 48.8011M59.8822 59.9911C56.044 58.9169 52.217 58.3797 48.3788 58.3797C44.5406 58.3797 40.7136 58.9169 36.8755 59.9911M59.8822 71.1812C56.0496 70.1069 52.217 69.5698 48.3788 69.5698C44.5406 69.5698 40.7136 70.1069 36.8755 71.1812M59.8822 82.3712C56.0496 81.297 52.217 80.7598 48.3788 80.7598C44.5406 80.7598 40.7136 81.297 36.8755 82.3712" stroke="white" stroke-width="5" stroke-linecap="round" stroke-linejoin="round"/>
<path fill-rule="evenodd" clip-rule="evenodd" d="M70.7602 42.0986C63.302 38.0366 55.8383 36 48.3801 36C40.9219 36 33.4582 38.0366 26 42.0986V97.5453C33.4582 93.8134 40.9219 91.9502 48.3801 91.9502C55.8383 91.9502 63.302 93.8134 70.7602 97.5453V42.0986Z" fill="url(#paint3_linear_42_539)" stroke="white" stroke-width="5" stroke-linecap="round" stroke-linejoin="round"/>
<defs>
<linearGradient id="paint0_linear_42_539" x1="75.5" y1="8.5" x2="3.5" y2="139" gradientUnits="userSpaceOnUse">
<stop stop-color="#F553DB" stop-opacity="0.72"/>
<stop offset="0.900651" stop-color="#A054E8"/>
</linearGradient>
<linearGradient id="paint1_linear_42_539" x1="93.4568" y1="34.9165" x2="92.8609" y2="97.5426" gradientUnits="userSpaceOnUse">
<stop stop-color="#F755F1"/>
<stop offset="1" stop-color="#A855F7" stop-opacity="0.07"/>
</linearGradient>
<linearGradient id="paint2_linear_42_539" x1="71.2362" y1="46.5703" x2="71.1075" y2="82.3725" gradientUnits="userSpaceOnUse">
<stop stop-color="#F755F1"/>
<stop offset="1" stop-color="#A855F7" stop-opacity="0.07"/>
</linearGradient>
<linearGradient id="paint3_linear_42_539" x1="48.6953" y1="34.9165" x2="48.0994" y2="97.5426" gradientUnits="userSpaceOnUse">
<stop stop-color="#F755F1"/>
<stop offset="1" stop-color="#A855F7" stop-opacity="0.07"/>
</linearGradient>
</defs>
</svg>
