<svg width="105" height="105" viewBox="0 0 105 105" fill="none" xmlns="http://www.w3.org/2000/svg">
<rect width="105" height="105" rx="1" fill="url(#paint0_linear_70_756)"/>
<path d="M75.3261 80.6594H70.7609V73.678C70.7573 70.5932 69.5536 67.6358 67.4141 65.4545C65.2745 63.2732 62.3736 62.0461 59.3478 62.0424H45.6522C42.6264 62.0461 39.7255 63.2732 37.5859 65.4545C35.4464 67.6358 34.2428 70.5932 34.2391 73.678V80.6594H29.6739V73.678C29.6788 69.3592 31.3637 65.2187 34.3592 62.1648C37.3546 59.1109 41.416 57.3931 45.6522 57.3881H59.3478C63.584 57.3931 67.6454 59.1109 70.6408 62.1648C73.6363 65.2187 75.3213 69.3592 75.3261 73.678V80.6594ZM27.3913 24.8083C26.7859 24.8083 26.2053 25.0535 25.7773 25.49C25.3492 25.9264 25.1087 26.5183 25.1087 27.1355V48.0796H29.6739V27.1355C29.6739 26.5183 29.4334 25.9264 29.0054 25.49C28.5773 25.0535 27.9967 24.8083 27.3913 24.8083Z" fill="white"/>
<path d="M25.1087 18.5435V22.7323H36.9973V37.3932C36.9973 41.2815 38.7509 45.0106 41.8722 47.76C44.9936 50.5095 49.227 52.0541 53.6413 52.0541C58.0556 52.0541 62.2891 50.5095 65.4104 47.76C68.5318 45.0106 70.2853 41.2815 70.2853 37.3932V22.7323H82.1739V18.5435H25.1087ZM41.7527 22.7323H65.5299V29.0155H41.7527V22.7323ZM53.6413 47.8653C50.4883 47.8653 47.4644 46.762 45.2348 44.7981C43.0053 42.8342 41.7527 40.1706 41.7527 37.3932V33.2044H65.5299V37.3932C65.5299 40.1706 64.2774 42.8342 62.0478 44.7981C59.8183 46.762 56.7944 47.8653 53.6413 47.8653Z" fill="white"/>
<defs>
<linearGradient id="paint0_linear_70_756" x1="52" y1="11.5" x2="52" y2="101" gradientUnits="userSpaceOnUse">
<stop stop-color="#A855F7" stop-opacity="0.88"/>
<stop offset="1" stop-color="#DF73F1"/>
</linearGradient>
</defs>
</svg>
