<svg width="105" height="105" viewBox="0 0 105 105" fill="none" xmlns="http://www.w3.org/2000/svg">
<rect width="105" height="105" rx="1" fill="url(#paint0_linear_70_757)"/>
<path d="M53.6414 80.174C37.8828 80.174 25.1088 67.3999 25.1088 51.6414C25.1088 35.8828 37.8828 23.1088 53.6414 23.1088C69.3999 23.1088 82.174 35.8828 82.174 51.6414C82.174 67.3999 69.3999 80.174 53.6414 80.174ZM53.6414 74.4675C59.6952 74.4675 65.5011 72.0626 69.7819 67.7819C74.0626 63.5011 76.4675 57.6952 76.4675 51.6414C76.4675 45.5875 74.0626 39.7816 69.7819 35.5009C65.5011 31.2202 59.6952 28.8153 53.6414 28.8153C47.5875 28.8153 41.7816 31.2202 37.5009 35.5009C33.2202 39.7816 30.8153 45.5875 30.8153 51.6414C30.8153 57.6952 33.2202 63.5011 37.5009 67.7819C41.7816 72.0626 47.5875 74.4675 53.6414 74.4675ZM56.4946 51.6414H67.9077V57.3479H50.7881V37.3751H56.4946V51.6414Z" fill="white"/>
<defs>
<linearGradient id="paint0_linear_70_757" x1="52" y1="11.5" x2="52" y2="101" gradientUnits="userSpaceOnUse">
<stop stop-color="#A855F7" stop-opacity="0.88"/>
<stop offset="1" stop-color="#DF73F1"/>
</linearGradient>
</defs>
</svg>
