<svg width="1440" height="914" viewBox="0 0 1440 914" fill="none" xmlns="http://www.w3.org/2000/svg">
<mask id="path-1-inside-1_70_772" fill="white">
<path d="M-3 200C-3 89.543 86.5431 0 197 0H1440V914H-3V200Z"/>
</mask>
<path d="M-3 200C-3 89.543 86.5431 0 197 0H1440V914H-3V200Z" fill="#C180FF" fill-opacity="0.06"/>
<path d="M-3 200C-3 88.9908 86.9908 -1 198 -1H1440V1H197C86.5431 1 -3 90.0953 -3 200ZM1440 914H-3H1440ZM-3 914V0V914ZM1440 0V914V0Z" fill="#A855F7" mask="url(#path-1-inside-1_70_772)"/>
<path d="M-0.299323 912.889C-0.316189 826 -0.307276 871.889 -0.316181 826C79.976 826.627 91.1242 826.714 -0.316181 826C47.1548 826.371 -0.316059 826 91.2994 826.714C90.9365 872.829 47.1717 913.259 -0.299323 912.889Z" fill="#EEDDFE" fill-opacity="0.85"/>
<path d="M-0.353594 826.036C-0.353594 826.036 -0.702218 788.199 -0.328233 740.686C84.251 740.66 78.071 741.298 -0.328233 740.686C46.0236 741.047 -5.20459 739.963 84.251 740.66C83.877 788.173 45.9982 826.398 -0.353594 826.036Z" fill="#A855F7"/>
</svg>
