<svg width="58" height="58" viewBox="0 0 58 58" fill="none" xmlns="http://www.w3.org/2000/svg">
<path d="M28.6414 57.174C12.8828 57.174 0.108765 44.3999 0.108765 28.6414C0.108765 12.8828 12.8828 0.108765 28.6414 0.108765C44.3999 0.108765 57.174 12.8828 57.174 28.6414C57.174 44.3999 44.3999 57.174 28.6414 57.174ZM28.6414 51.4675C34.6952 51.4675 40.5011 49.0626 44.7819 44.7819C49.0626 40.5011 51.4675 34.6952 51.4675 28.6414C51.4675 22.5875 49.0626 16.7816 44.7819 12.5009C40.5011 8.22017 34.6952 5.81529 28.6414 5.81529C22.5875 5.81529 16.7816 8.22017 12.5009 12.5009C8.22017 16.7816 5.81529 22.5875 5.81529 28.6414C5.81529 34.6952 8.22017 40.5011 12.5009 44.7819C16.7816 49.0626 22.5875 51.4675 28.6414 51.4675ZM31.4946 28.6414H42.9077V34.3479H25.7881V14.3751H31.4946V28.6414Z" fill="white"/>
</svg>
